<?xml version="1.0" encoding="UTF-8" standalone="no"?>
<svg
   xmlns:dc="http://purl.org/dc/elements/1.1/"
   xmlns:cc="http://creativecommons.org/ns#"
   xmlns:rdf="http://www.w3.org/1999/02/22-rdf-syntax-ns#"
   xmlns:svg="http://www.w3.org/2000/svg"
   xmlns="http://www.w3.org/2000/svg"
   xmlns:sodipodi="http://sodipodi.sourceforge.net/DTD/sodipodi-0.dtd"
   xmlns:inkscape="http://www.inkscape.org/namespaces/inkscape"
   width="154.46747mm"
   height="33.155838mm"
   viewBox="0 0 547.32567 117.48132"
   id="svg4396"
   version="1.1"
   inkscape:version="0.91 r"
   sodipodi:docname="logo-blue.svg">
  <sodipodi:namedview
     pagecolor="#ffffff"
     bordercolor="#666666"
     borderopacity="1"
     objecttolerance="10"
     gridtolerance="10"
     guidetolerance="10"
     inkscape:pageopacity="0"
     inkscape:pageshadow="2"
     inkscape:window-width="1600"
     inkscape:window-height="839"
     id="namedview13"
     showgrid="false"
     inkscape:zoom="1.4689609"
     inkscape:cx="98.709232"
     inkscape:cy="58.740658"
     inkscape:window-x="0"
     inkscape:window-y="0"
     inkscape:window-maximized="1"
     inkscape:current-layer="svg4396" />
  <title
     id="title4964">Maps4Print Logo</title>
  <defs
     id="defs4398" />
  <metadata
     id="metadata4401">
    <rdf:RDF>
      <cc:Work
         rdf:about="">
        <dc:format>image/svg+xml</dc:format>
        <dc:type
           rdf:resource="http://purl.org/dc/dcmitype/StillImage" />
        <dc:title>Maps4Print Logo</dc:title>
      </cc:Work>
    </rdf:RDF>
  </metadata>
  <path
     inkscape:connector-curvature="0"
     id="path4142"
     style="font-style:normal;font-variant:normal;font-weight:normal;font-stretch:condensed;font-size:medium;line-height:125%;font-family:Norwester;-inkscape-font-specification:'Norwester Condensed';letter-spacing:0px;word-spacing:0px;fill:#1976d2;fill-opacity:1;stroke:none;stroke-width:1px;stroke-linecap:butt;stroke-linejoin:miter;stroke-opacity:1"
     d="m 173.36495,28.67912 c -0.98671,0 -1.56229,0.50037 -1.80898,1.417717 l -9.12713,37.194247 -9.12714,-37.194247 c -0.24668,-0.917347 -0.82226,-1.417717 -1.80898,-1.417717 l -10.85389,0 c -1.06894,0 -1.64453,0.583766 -1.64453,1.667902 l 0,55.040815 c 0,1.084137 0.57559,1.667903 1.64453,1.667903 l 7.56484,0 c 1.06894,0 1.64452,-0.583766 1.64452,-1.667903 l 0,-32.774303 0.57558,0 7.7293,33.024488 c 0.24667,0.917348 0.82225,1.417718 1.80898,1.417718 l 4.85135,0 c 0.98672,0 1.56231,-0.50037 1.80899,-1.417718 l 7.72928,-33.024488 0.57559,0 0,32.774303 c 0,1.084137 0.57558,1.667903 1.64452,1.667903 l 7.64707,0 c 1.06894,0 1.64452,-0.583766 1.64452,-1.667903 l 0,-55.040815 c 0,-1.084136 -0.57558,-1.667902 -1.64452,-1.667902 l -10.8539,0 z" />
  <path
     inkscape:connector-curvature="0"
     id="path4144"
     style="font-style:normal;font-variant:normal;font-weight:normal;font-stretch:condensed;font-size:medium;line-height:125%;font-family:Norwester;-inkscape-font-specification:'Norwester Condensed';letter-spacing:0px;word-spacing:0px;fill:#1976d2;fill-opacity:1;stroke:none;stroke-width:1px;stroke-linecap:butt;stroke-linejoin:miter;stroke-opacity:1"
     d="m 232.08749,87.05574 c 0.98671,0 1.39784,-0.50037 1.15116,-1.417718 L 219.58907,29.846652 C 219.42461,29.0127 218.93126,28.67912 218.19122,28.67912 l -11.42948,0 c -0.74004,0 -1.2334,0.33358 -1.39785,1.167532 l -13.64959,55.79137 c -0.24668,0.917348 0.16445,1.417718 1.06895,1.417718 l 8.05818,0 c 0.74004,0 1.15117,-0.416976 1.31562,-1.167532 l 2.54902,-10.507791 15.45858,0 2.63125,10.507791 c 0.16445,0.750556 0.57558,1.167532 1.31562,1.167532 l 7.97597,0 z m -14.47186,-21.349164 -10.36054,0 5.18028,-22.683487 5.18026,22.683487 z" />
  <path
     inkscape:connector-curvature="0"
     id="path4146"
     style="font-style:normal;font-variant:normal;font-weight:normal;font-stretch:condensed;font-size:medium;line-height:125%;font-family:Norwester;-inkscape-font-specification:'Norwester Condensed';letter-spacing:0px;word-spacing:0px;fill:#1976d2;fill-opacity:1;stroke:none;stroke-width:1px;stroke-linecap:butt;stroke-linejoin:miter;stroke-opacity:1"
     d="m 239.85017,85.721418 c 0,0.833952 0.49336,1.334322 1.31563,1.334322 l 8.05818,0.0834 c 0.9045,0 1.31562,-0.500372 1.31562,-1.334323 l 0,-16.679034 10.36054,-0.0834 c 7.72929,-0.0834 11.84061,-4.253153 11.84061,-12.008905 l 0,-16.345454 c 0,-7.839146 -4.11132,-12.008904 -11.84061,-12.008904 l -19.73434,0 c -0.82227,0 -1.31563,0.50037 -1.31563,1.334323 l 0,55.707975 z m 10.68943,-27.353617 0,-18.847309 8.22265,-0.0834 c 2.22011,0 3.28906,1.167532 3.28906,3.335807 l 0,12.175695 c 0,2.084879 -1.06895,3.335807 -3.28906,3.335807 l -8.22265,0.0834 z" />
  <path
     inkscape:connector-curvature="0"
     id="path4148"
     style="font-style:normal;font-variant:normal;font-weight:normal;font-stretch:condensed;font-size:medium;line-height:125%;font-family:Norwester;-inkscape-font-specification:'Norwester Condensed';letter-spacing:0px;word-spacing:0px;fill:#1976d2;fill-opacity:1;stroke:none;stroke-width:1px;stroke-linecap:butt;stroke-linejoin:miter;stroke-opacity:1"
     d="m 292.804,28.67912 c -7.64706,0 -11.84061,4.169758 -11.84061,12.008904 l 0,14.427365 c 0,1.584508 0.74004,2.58525 2.22012,3.085622 l 19.73435,6.504823 0,8.422912 c 0,2.251671 -1.15118,3.335807 -3.28906,3.335807 l -4.44024,0 c -2.05566,0 -3.28905,-1.084136 -3.28905,-3.335807 l 0,-3.502597 c 0,-0.917346 -0.41113,-1.334323 -1.31563,-1.334323 l -8.30486,0 c -0.82227,0 -1.31563,0.416977 -1.31563,1.334323 l 0,5.420687 c 0,7.839146 4.19355,12.008904 11.84061,12.008904 l 9.20936,0 c 7.72929,0 11.84061,-4.169758 11.84061,-12.008904 l 0,-15.678293 c 0,-1.584508 -0.74004,-2.58525 -2.13789,-3.085621 l -19.8988,-6.504824 0,-7.08859 c 0,-2.168274 1.2334,-3.335807 3.28906,-3.335807 l 4.52246,0 c 2.22011,0 3.28906,1.167533 3.28906,3.335807 l 0,3.502597 c 0,0.833953 0.49335,1.334323 1.31562,1.334323 l 8.30487,0 c 0.90448,0 1.31562,-0.50037 1.31562,-1.334323 l 0,-5.504081 c 0,-7.839146 -4.11132,-12.008904 -11.84061,-12.008904 l -9.20936,0 z" />
  <path
     inkscape:connector-curvature="0"
     id="path4150"
     style="font-style:normal;font-variant:normal;font-weight:normal;font-stretch:condensed;font-size:medium;line-height:125%;font-family:Norwester;-inkscape-font-specification:'Norwester Condensed';letter-spacing:0px;word-spacing:0px;fill:#1976d2;fill-opacity:1;stroke:none;stroke-width:1px;stroke-linecap:butt;stroke-linejoin:miter;stroke-opacity:1"
     d="m 357.76289,56.866688 0,-9.84063 c 0,-1.084138 -0.57558,-1.667904 -1.64453,-1.667904 l -7.1537,0 c -1.06894,0 -1.64453,0.583766 -1.64453,1.667904 l 0,10.00742 -12.49842,0 20.63884,-34.692392 c 0.74004,-1.167533 0.24668,-2.001484 -1.06894,-2.001484 l -8.63378,0 c -0.90449,0 -1.5623,0.333581 -1.97344,1.084138 l -21.1322,34.692391 c -0.41112,0.667162 -0.57558,1.250928 -0.57558,2.001484 l 0,7.42217 c 0,1.084138 0.57558,1.667904 1.64453,1.667904 l 23.59899,0 0,18.180148 c 0,1.084137 0.57559,1.667903 1.64453,1.667903 l 7.1537,0 c 1.06895,0 1.64453,-0.583766 1.64453,-1.667903 l 0,-18.013357 3.37129,0 c 1.06894,0 1.64452,-0.583766 1.64452,-1.667904 l 0,-7.171984 c 0,-1.084138 -0.57558,-1.667904 -1.64452,-1.667904 l -3.37129,0 z" />
  <path
     inkscape:connector-curvature="0"
     id="path4152"
     style="font-style:normal;font-variant:normal;font-weight:normal;font-stretch:condensed;font-size:medium;line-height:125%;font-family:Norwester;-inkscape-font-specification:'Norwester Condensed';letter-spacing:0px;word-spacing:0px;fill:#1976d2;fill-opacity:1;stroke:none;stroke-width:1px;stroke-linecap:butt;stroke-linejoin:miter;stroke-opacity:1"
     d="m 371.05917,85.721418 c 0,0.833952 0.49336,1.334322 1.31562,1.334322 l 8.0582,0.0834 c 0.90448,0 1.31562,-0.500372 1.31562,-1.334323 l 0,-16.679034 10.36053,-0.0834 c 7.72929,-0.0834 11.84061,-4.253153 11.84061,-12.008905 l 0,-16.345454 c 0,-7.839146 -4.11132,-12.008904 -11.84061,-12.008904 l -19.73435,0 c -0.82226,0 -1.31562,0.50037 -1.31562,1.334323 l 0,55.707975 z m 10.68944,-27.353617 0,-18.847309 8.22264,-0.0834 c 2.22012,0 3.28906,1.167532 3.28906,3.335807 l 0,12.175695 c 0,2.084879 -1.06894,3.335807 -3.28906,3.335807 l -8.22264,0.0834 z" />
  <path
     inkscape:connector-curvature="0"
     id="path4154"
     style="font-style:normal;font-variant:normal;font-weight:normal;font-stretch:condensed;font-size:medium;line-height:125%;font-family:Norwester;-inkscape-font-specification:'Norwester Condensed';letter-spacing:0px;word-spacing:0px;fill:#1976d2;fill-opacity:1;stroke:none;stroke-width:1px;stroke-linecap:butt;stroke-linejoin:miter;stroke-opacity:1"
     d="m 445.06296,40.688024 c 0,-7.839146 -4.11133,-12.008904 -11.84061,-12.008904 l -19.73435,0 c -0.82226,0 -1.31562,0.50037 -1.31562,1.334323 l 0,55.707975 c 0,0.833952 0.49336,1.334322 1.31562,1.334322 l 8.0582,0 c 0.82225,0 1.31562,-0.50037 1.31562,-1.334322 l 0,-16.262059 7.31815,0 3.94686,16.428849 c 0.16446,0.750556 0.57559,1.167532 1.39786,1.167532 l 8.05819,0 c 0.90449,0 1.39785,-0.50037 1.15117,-1.501112 l -4.27577,-17.929963 c 3.04237,-1.918089 4.60468,-5.337291 4.60468,-10.174211 l 0,-16.76243 z m -22.20114,18.013357 0,-19.264284 8.22264,0 c 2.13789,0 3.28906,1.167532 3.28906,3.335807 l 0,12.59267 c 0,2.168275 -1.15117,3.335807 -3.28906,3.335807 l -8.22264,0 z" />
  <path
     inkscape:connector-curvature="0"
     id="path4156"
     style="font-style:normal;font-variant:normal;font-weight:normal;font-stretch:condensed;font-size:medium;line-height:125%;font-family:Norwester;-inkscape-font-specification:'Norwester Condensed';letter-spacing:0px;word-spacing:0px;fill:#1976d2;fill-opacity:1;stroke:none;stroke-width:1px;stroke-linecap:butt;stroke-linejoin:miter;stroke-opacity:1"
     d="m 454.60124,87.05574 c -0.90449,0 -1.31562,-0.50037 -1.31562,-1.334322 l 0,-55.707975 c 0,-0.833953 0.41113,-1.334323 1.31562,-1.334323 l 8.55155,0 c 0.82226,0 1.31563,0.50037 1.31563,1.334323 l 0,55.707975 c 0,0.833952 -0.49337,1.334322 -1.31563,1.334322 l -8.55155,0 z" />
  <path
     inkscape:connector-curvature="0"
     id="path4158"
     style="font-style:normal;font-variant:normal;font-weight:normal;font-stretch:condensed;font-size:medium;line-height:125%;font-family:Norwester;-inkscape-font-specification:'Norwester Condensed';letter-spacing:0px;word-spacing:0px;fill:#1976d2;fill-opacity:1;stroke:none;stroke-width:1px;stroke-linecap:butt;stroke-linejoin:miter;stroke-opacity:1"
     d="m 498.78382,28.67912 c -0.90449,0 -1.31562,0.50037 -1.31562,1.334323 l 0,31.606769 -15.45858,-31.856956 c -0.3289,-0.750556 -0.74004,-1.084136 -1.48007,-1.084136 l -6.49589,0 c -0.82226,0 -1.31563,0.50037 -1.31563,1.334323 l 0,55.707975 c 0,0.833952 0.49337,1.334322 1.31563,1.334322 l 7.72929,0 c 0.90449,0 1.31562,-0.50037 1.31562,-1.334322 l 0,-31.606771 15.45857,31.856956 c 0.32891,0.750557 0.74004,1.084137 1.48008,1.084137 l 6.49589,0 c 0.82226,0 1.31562,-0.50037 1.31562,-1.334322 l 0,-55.707975 c 0,-0.833953 -0.49336,-1.334323 -1.31562,-1.334323 l -7.72929,0 z" />
  <path
     inkscape:connector-curvature="0"
     id="path4160"
     style="font-style:normal;font-variant:normal;font-weight:normal;font-stretch:condensed;font-size:medium;line-height:125%;font-family:Norwester;-inkscape-font-specification:'Norwester Condensed';letter-spacing:0px;word-spacing:0px;fill:#1976d2;fill-opacity:1;stroke:none;stroke-width:1px;stroke-linecap:butt;stroke-linejoin:miter;stroke-opacity:1"
     d="m 546.01006,28.67912 c 0.9045,0 1.31562,0.50037 1.31562,1.334323 l 0,8.339516 c 0,0.833953 -0.41112,1.334323 -1.31562,1.334323 l -9.53827,0 0,46.034136 c 0,0.917346 -0.41113,1.334322 -1.31562,1.334322 l -8.55155,0 c -0.82226,0 -1.31563,-0.416976 -1.31563,-1.334322 l 0,-46.034136 -9.53826,0 c -0.82227,0 -1.31562,-0.50037 -1.31562,-1.334323 l 0,-8.339516 c 0,-0.833953 0.49335,-1.334323 1.31562,-1.334323 l 30.25933,0 z" />
  <path
     style="fill:none;fill-opacity:1;stroke:#1976d2;stroke-width:9.04204464;stroke-linecap:butt;stroke-linejoin:miter;stroke-miterlimit:4;stroke-dasharray:none;stroke-dashoffset:0;stroke-opacity:1"
     d="m 16.605045,4.5210238 84.076725,0 0,43.5184252 -84.076725,0 z"
     id="rect4207-5" />
  <path
     id="path4210-3"
     d="m 0,28.52358 117.28676,0 0,29.32171 0,29.32169 -14.66084,0 -14.66085,-28.97673 -29.32169,0 -29.32169,0 -14.66085,28.97673 -14.66084,0 z"
     style="fill:#1976d2;fill-opacity:1;stroke:#2e3436;stroke-width:0;stroke-linecap:butt;stroke-linejoin:miter;stroke-miterlimit:4;stroke-dasharray:none;stroke-dashoffset:0" />
  <path
     style="fill:#ffffff;fill-opacity:1;stroke:#ffffff;stroke-width:0;stroke-linecap:butt;stroke-linejoin:miter;stroke-miterlimit:4;stroke-dasharray:none;stroke-dashoffset:0"
     d="m 105.1842,41.520626 a 4.4387178,4.4387178 0 0 1 -4.43872,4.438718 4.4387178,4.4387178 0 0 1 -4.438714,-4.438718 4.4387178,4.4387178 0 0 1 4.438714,-4.438718 4.4387178,4.4387178 0 0 1 4.43872,4.438718 z"
     id="circle4212-5" />
  <path
     style="fill:#1976d2;fill-opacity:1;stroke:none;stroke-width:33.70086288;stroke-linecap:butt;stroke-linejoin:miter;stroke-miterlimit:4;stroke-dasharray:none;stroke-dashoffset:0"
     d="m 55.981571,12.911984 36.104946,0 0,9.640047 -36.104946,0 z"
     id="rect4214-6" />
  <path
     style="fill:#ffffff;fill-opacity:0;fill-rule:evenodd;stroke:#1976d2;stroke-width:8.76291084;stroke-linecap:butt;stroke-linejoin:miter;stroke-miterlimit:4;stroke-dasharray:none;stroke-dashoffset:0;stroke-opacity:1"
     d="m 34.1595,67.76741 12.24194,-3.54648 12.24194,4.05035 12.24194,-4.05035 12.24194,3.54648 20.45934,41.88275 -22.47161,-8.18196 -22.47161,8.21754 -22.47161,-8.21754 -22.47161,8.18196 z"
     id="path4216-2" />
</svg>
