<?xml version="1.0" standalone="no"?>
<!DOCTYPE svg PUBLIC "-//W3C//DTD SVG 20010904//EN"
 "http://www.w3.org/TR/2001/REC-SVG-20010904/DTD/svg10.dtd">
<svg version="1.0" xmlns="http://www.w3.org/2000/svg"
 width="16.000000pt" height="16.000000pt" viewBox="0 0 16.000000 16.000000"
 preserveAspectRatio="xMidYMid meet">
<metadata>
Created by potrace 1.11, written by Peter Selinger 2001-2013
</metadata>
<g transform="translate(0.000000,16.000000) scale(0.002043,-0.002043)"
fill="#000000" stroke="none">
<path d="M810 6880 l0 -950 -405 0 -405 0 0 -1955 0 -1955 489 0 489 0 488
965 488 965 1956 0 1956 0 488 -965 488 -965 489 0 489 0 0 1955 0 1955 -405
0 -405 0 0 950 0 950 -3100 0 -3100 0 0 -950z m5600 -300 l0 -650 -2500 0
-2500 0 0 650 0 650 2500 0 2500 0 0 -650z m438 -1254 c172 -87 215 -313 87
-464 -14 -17 -53 -45 -87 -61 -108 -54 -233 -38 -323 41 -116 102 -136 271
-46 395 83 115 242 153 369 89z"/>
<path d="M3730 6650 l0 -320 1205 0 1205 0 0 320 0 320 -1205 0 -1205 0 0
-320z"/>
<path d="M3046 3840 c-16 -5 -242 -71 -502 -146 l-472 -137 -866 -1771 c-476
-975 -866 -1775 -866 -1778 0 -3 462 163 1028 369 565 206 1034 374 1042 375
8 1 175 -58 370 -129 195 -72 530 -195 743 -272 l388 -142 749 274 749 274
1036 -377 c569 -208 1035 -374 1035 -371 0 6 -1727 3541 -1733 3547 -6 6
-1007 294 -1024 294 -10 0 -196 -59 -413 -132 l-395 -131 -402 131 c-221 73
-410 132 -420 131 -10 0 -31 -5 -47 -9z m462 -734 l402 -134 409 136 410 137
296 -85 c163 -47 300 -87 305 -90 11 -7 992 -2012 986 -2017 -2 -2 -207 70
-456 161 l-452 164 -748 -274 -749 -274 -749 274 -749 274 -452 -165 c-249
-91 -454 -163 -457 -161 -3 4 970 2005 979 2015 7 6 584 172 602 172 11 1 201
-59 423 -133z"/>
</g>
</svg>
